# xmcd
#
# Track frame offsets:
#	150
#	17692
#	32199
#	61164
#
# Disc length: 2235 seconds
#
# Revision: 0
# Processed by: cddbd v1.5PL3 Copyright (c) Steve Scherf et al.
# Submitted via: dBpowerAMP V4.0
#
DISCID=2908b904
DTITLE=Camron - Hey Ma
DYEAR=2002
DGENRE=Hip-Hop
TTITLE0=Camron - Hey Ma 
TTITLE1=Camron - Live My Life
TTITLE2=Camron - Ha Ma (Instrumental)
TTITLE3=DATA
EXTD=
EXTT0=
EXTT1=
EXTT2=
EXTT3=
PLAYORDER=
